# xmcd
#
# Track frame offsets:
# 150
# 14991
# 30782
# 49875
# 64689
# 82628
# 93630
# 106123
# 118175
# 133997
# 150875
# 174885
# 190900
#
# Disc length: 2766 seconds
#
# Revision: 1
# Processed by: cddbd v1.4PL0 Copyright (c) Steve Scherf et al.
# Submitted via: Axialis_AX_CDPlayer 2.6
#
DISCID=9c0acc0d
DTITLE=Lonesome Brothers - Pony Tales
DYEAR=2002
DGENRE=Country
TTITLE0=Crossing With The Cuckoo
TTITLE1=The Drinking Side
TTITLE2=Next Time
TTITLE3=Gail Table For One
TTITLE4=Old Rails Rust
TTITLE5=Queen Of Where I Go
TTITLE6=Don't You Go
TTITLE7=Bent Rim
TTITLE8=Sure Looks Pretty
TTITLE9=Almost Had You
TTITLE10=Dumbstruck At The Dumpster
TTITLE11=Made Of Stone
TTITLE12=I'll Be Drinking In My Dreams
EXTD=
EXTT0=
EXTT1=
EXTT2=
EXTT3=
EXTT4=
EXTT5=
EXTT6=
EXTT7=
EXTT8=
EXTT9=
EXTT10=
EXTT11=
EXTT12=
PLAYORDER=
